<svg version="1.0" xmlns="http://www.w3.org/2000/svg"
 width="512.000000pt" height="512.000000pt" viewBox="0 0 512.000000 512.000000"
 preserveAspectRatio="xMidYMid meet">

<g transform="translate(0.000000,512.000000) scale(0.100000,-0.100000)"
fill="#000000" stroke="none">
<path d="M3625 4966 c-16 -8 -117 -101 -223 -208 -261 -262 -261 -266 -89
-436 102 -100 105 -102 151 -102 61 0 77 9 160 89 147 142 48 29 -248 -283
-429 -452 -410 -441 -766 -441 -356 0 -342 -8 -734 406 -325 341 -377 399
-281 308 80 -76 101 -89 145 -89 46 0 66 13 168 114 68 67 95 101 103 129 19
70 1 97 -185 286 -209 212 -233 231 -296 231 -58 0 -95 -25 -196 -132 -114
-121 -113 -161 12 -288 l83 -85 -242 -227 -242 -226 -86 83 c-96 92 -129 106
-196 85 -44 -15 -206 -170 -223 -214 -14 -38 -13 -82 4 -114 8 -15 104 -115
213 -223 260 -258 261 -258 431 -86 100 102 102 105 102 151 0 61 -9 78 -83
153 -41 42 -58 66 -51 73 7 7 151 -133 442 -429 l432 -440 0 -535 0 -534 -51
-754 c-28 -414 -48 -776 -46 -805 11 -113 83 -210 190 -258 53 -24 69 -27 141
-23 96 5 167 38 222 101 75 89 71 60 138 865 61 729 61 732 83 732 28 0 22 52
88 -760 31 -371 60 -690 65 -708 14 -52 56 -117 102 -156 182 -156 473 -54
518 182 6 33 -6 259 -41 782 l-49 735 0 570 0 570 431 438 c237 240 435 434
441 431 5 -3 -25 -41 -66 -84 -73 -74 -76 -80 -76 -124 0 -65 15 -89 118 -188
94 -91 130 -108 189 -93 18 4 104 82 237 214 200 199 208 210 213 253 7 61 -8
86 -120 196 l-94 92 -58 0 -58 0 -88 -86 c-80 -79 -90 -86 -106 -73 -10 8 -97
88 -193 180 -96 91 -197 186 -225 211 l-50 47 77 79 c107 110 121 155 71 229
-31 44 -166 174 -200 192 -29 15 -71 13 -108 -3z m128 -194 l67 -67 -175 -175
-175 -175 -70 70 -70 70 172 172 c95 95 175 173 178 173 3 0 36 -30 73 -68z
m-2045 -115 l172 -172 -70 -70 -70 -69 -175 174 -175 175 67 67 c37 38 70 68
73 68 3 0 83 -78 178 -173z m33 -727 c311 -328 379 -389 481 -434 109 -47 140
-51 393 -51 237 0 241 0 320 28 155 55 183 80 646 567 112 118 208 216 214
217 5 1 65 -50 133 -115 l123 -117 -439 -445 c-241 -245 -444 -455 -450 -467
-9 -16 -12 -177 -12 -595 l0 -574 50 -754 c54 -812 54 -790 2 -852 -75 -89
-233 -74 -290 29 -21 38 -27 94 -87 808 -55 658 -66 770 -81 786 -16 18 -30
19 -137 17 -115 -3 -121 -4 -138 -28 -15 -21 -27 -138 -79 -775 -33 -412 -65
-764 -71 -781 -10 -32 -58 -83 -96 -103 -12 -6 -45 -11 -73 -11 -99 0 -170 66
-177 163 -2 29 16 358 41 732 l46 679 0 631 0 632 -447 453 -447 454 125 118
c68 65 127 118 131 118 3 0 147 -148 319 -330z m2729 -185 l-175 -175 -70 70
-70 70 175 175 175 175 70 -70 70 -70 -175 -175z m-3483 -112 l-67 -68 -175
175 -175 175 67 67 68 68 175 -175 175 -175 -68 -67z"/>
<path d="M2493 4715 c-190 -41 -352 -203 -398 -397 -50 -214 41 -437 228 -559
299 -194 690 -44 794 305 9 30 15 89 15 142 0 249 -171 457 -417 509 -85 18
-140 18 -222 0z m260 -155 c73 -28 164 -110 200 -182 80 -159 47 -341 -85
-463 -79 -73 -146 -98 -263 -99 -81 -1 -97 2 -157 31 -85 40 -151 106 -191
191 -29 61 -32 76 -32 163 0 90 2 99 38 171 52 106 142 180 254 208 59 14 171
5 236 -20z"/>
</g>
</svg>
