
<svg version="1.0" xmlns="http://www.w3.org/2000/svg"
 width="512.000000pt" height="512.000000pt" viewBox="0 0 512.000000 512.000000"
 preserveAspectRatio="xMidYMid meet">

<g transform="translate(0.000000,512.000000) scale(0.100000,-0.100000)"
fill="#000000" stroke="none">
<path d="M1718 5105 c-101 -17 -194 -48 -298 -101 -107 -53 -166 -95 -253
-181 -95 -94 -150 -170 -207 -288 -59 -121 -85 -213 -101 -351 -27 -241 47
-514 193 -711 27 -38 343 -362 701 -722 709 -710 698 -701 807 -701 109 0 97
-10 817 711 697 700 726 732 798 894 177 399 88 866 -221 1167 -129 126 -292
218 -469 264 -88 24 -119 27 -255 27 -136 0 -168 -4 -255 -27 -116 -30 -261
-97 -353 -163 -44 -31 -69 -43 -77 -37 -130 95 -231 149 -350 187 -149 47
-320 58 -477 32z m405 -189 c108 -32 200 -78 291 -145 38 -28 86 -56 107 -61
56 -15 104 1 185 61 344 254 804 234 1106 -50 94 -88 156 -171 202 -273 120
-258 104 -564 -42 -813 -41 -71 -120 -154 -712 -748 -626 -628 -667 -667 -700
-667 -32 0 -72 38 -648 613 -338 336 -643 645 -677 685 -65 76 -140 208 -168
297 -63 200 -50 437 33 621 98 218 290 393 515 469 152 52 353 56 508 11z"/>
<path d="M1745 4764 c-206 -42 -404 -204 -491 -401 -79 -177 -73 -418 14 -590
35 -69 116 -179 142 -193 33 -18 79 -11 105 15 36 35 32 74 -10 127 -96 119
-135 223 -135 357 0 152 46 266 150 372 95 97 238 159 367 159 24 0 41 8 58
26 34 37 33 78 -4 115 -25 24 -37 29 -78 28 -26 0 -79 -7 -118 -15z"/>
<path d="M3135 4432 c-58 -11 -261 -203 -384 -362 -141 -182 -245 -347 -366
-582 l-81 -158 -35 36 c-48 50 -174 144 -240 178 -40 21 -62 27 -82 22 -42
-10 -67 -41 -67 -81 0 -43 14 -57 124 -127 89 -56 169 -133 222 -213 39 -58
76 -80 117 -70 36 9 40 16 111 168 206 440 465 813 688 990 48 37 89 75 92 83
25 65 -30 129 -99 116z"/>
<path d="M1365 2375 c-86 -32 -152 -113 -164 -200 l-6 -40 -125 -5 c-103 -4
-132 -9 -166 -27 -86 -46 -133 -130 -134 -240 l0 -71 -122 -4 c-93 -2 -132 -7
-159 -21 -72 -36 -129 -111 -144 -189 l-7 -36 -106 -4 c-122 -4 -155 -17 -199
-75 l-28 -36 0 -232 0 -232 28 -36 c44 -58 77 -71 199 -75 l106 -4 7 -37 c10
-54 54 -127 93 -158 56 -42 98 -52 220 -53 l112 0 0 -72 c1 -114 45 -193 135
-241 33 -18 63 -23 165 -27 l125 -5 6 -40 c13 -91 80 -171 172 -201 34 -11 74
-15 140 -12 106 4 151 21 208 80 65 68 69 91 69 450 l0 318 770 0 769 0 3
-338 c3 -300 5 -341 21 -369 24 -46 77 -96 123 -118 54 -27 205 -33 271 -11
92 30 159 110 172 201 l6 40 125 5 c102 4 132 9 165 27 90 48 134 127 135 241
l0 72 113 0 c121 1 163 11 219 53 39 31 83 104 93 158 l7 37 106 4 c122 4 155
17 199 75 l28 36 0 232 0 232 -28 36 c-44 58 -77 71 -199 75 l-106 4 -7 36
c-16 87 -85 170 -163 196 -30 11 -82 16 -154 16 l-108 0 0 73 c-1 110 -47 194
-134 240 -34 18 -63 23 -166 27 l-125 5 -7 42 c-16 95 -79 169 -171 199 -36
12 -74 15 -141 12 -77 -3 -99 -8 -144 -33 -28 -15 -63 -43 -77 -61 -52 -68
-55 -91 -55 -435 l0 -319 -770 0 -770 0 0 319 c0 344 -3 367 -55 435 -14 18
-49 46 -77 62 -47 25 -64 29 -153 31 -69 2 -112 -2 -140 -12z m226 -184 l29
-29 0 -969 c0 -960 0 -969 -20 -991 -27 -28 -57 -35 -132 -30 -108 8 -98 -96
-98 1020 0 667 3 976 11 989 15 28 44 38 117 38 57 1 66 -2 93 -28z m2140 0
c18 -22 19 -57 19 -996 0 -1120 10 -1015 -98 -1023 -75 -5 -105 2 -132 30 -20
22 -20 31 -20 994 l0 972 32 27 c30 25 37 27 106 23 63 -3 77 -7 93 -27z
m-2541 -996 l0 -765 -100 0 c-94 0 -103 2 -125 25 l-25 24 0 716 0 716 25 24
c22 23 31 25 125 25 l100 0 0 -765z m2965 740 l25 -24 0 -716 0 -716 -25 -24
c-22 -23 -31 -25 -125 -25 l-100 0 0 765 0 765 100 0 c94 0 103 -2 125 -25z
m-3385 -740 l0 -425 -104 0 c-104 0 -104 0 -130 31 l-26 31 0 365 0 365 29 29
c29 28 32 29 130 29 l101 0 0 -425z m3811 396 l29 -29 0 -365 0 -365 -26 -31
c-26 -31 -26 -31 -130 -31 l-104 0 0 425 0 425 101 0 c98 0 101 -1 130 -29z
m-4241 -396 l0 -175 -85 0 -85 0 0 168 c0 93 3 172 7 175 3 4 42 7 85 7 l78 0
0 -175z m2985 0 l0 -170 -765 0 -765 0 -3 160 c-1 87 0 165 2 172 4 11 151 13
768 11 l763 -3 0 -170z m1623 -2 l2 -173 -85 0 -85 0 0 175 0 176 83 -3 82 -3
3 -172z"/>
</g>
</svg>
