
<svg version="1.0" xmlns="http://www.w3.org/2000/svg"
 width="512.000000pt" height="512.000000pt" viewBox="0 0 512.000000 512.000000"
 preserveAspectRatio="xMidYMid meet">

<g transform="translate(0.000000,512.000000) scale(0.100000,-0.100000)"
fill="#000000" stroke="none">
<path d="M203 5110 c-12 -5 -30 -21 -40 -37 -17 -26 -18 -132 -21 -2449 l-2
-2421 -43 -6 c-82 -11 -117 -102 -63 -164 l24 -28 387 0 387 0 24 28 c54 63
19 153 -64 164 l-42 6 0 2088 0 2089 235 0 235 0 0 -423 0 -423 -34 -12 c-50
-18 -127 -92 -161 -154 -24 -44 -30 -68 -33 -138 -5 -109 19 -177 86 -249 69
-73 145 -105 247 -106 71 0 88 4 147 33 73 36 124 87 160 161 19 38 23 62 23
146 0 92 -2 104 -30 153 -34 62 -111 136 -161 154 l-34 12 0 423 0 423 375 0
375 0 0 -423 0 -423 -34 -12 c-50 -18 -127 -92 -161 -154 -24 -44 -30 -68 -33
-138 -5 -109 19 -177 86 -249 69 -73 145 -105 247 -106 71 0 88 4 147 33 73
36 124 87 160 161 19 38 23 62 23 146 0 92 -2 104 -30 153 -34 62 -111 136
-161 154 l-34 12 0 423 0 423 240 0 240 0 0 -929 0 -930 24 -28 c20 -23 32
-28 69 -28 54 0 82 22 97 74 6 23 10 368 10 939 l0 902 100 0 100 0 0 -2090 0
-2090 -100 0 -100 0 0 723 c0 464 -4 735 -10 759 -22 79 -116 103 -167 43
l-23 -26 0 -748 0 -748 -47 -6 c-35 -4 -53 -12 -70 -32 -32 -36 -31 -95 1
-132 l24 -28 387 0 387 0 24 28 c55 64 11 167 -70 167 l-36 0 0 145 0 145 450
0 450 0 0 -144 0 -143 -42 -6 c-83 -11 -118 -101 -64 -164 l24 -28 387 0 387
0 24 28 c53 62 19 153 -63 164 l-42 6 -3 1676 c-3 1502 -5 1681 -19 1721 -33
92 -65 146 -128 212 -73 78 -165 129 -265 147 -38 7 -252 11 -578 11 l-518 0
0 518 c0 323 -4 531 -10 554 -6 20 -23 47 -37 58 -26 20 -36 21 -266 18 l-239
-3 -24 -28 c-24 -28 -24 -29 -24 -268 l0 -239 -1059 0 -1060 0 -3 233 c-3 254
-8 276 -64 297 -32 12 -451 12 -481 0z m337 -360 l0 -170 -95 0 -95 0 0 170 0
170 95 0 95 0 0 -170z m2730 0 l0 -170 -100 0 -100 0 0 170 0 170 100 0 100 0
0 -170z m-2730 -2460 l0 -2090 -95 0 -95 0 0 2090 0 2090 95 0 95 0 0 -2090z
m4062 1447 c32 -16 75 -48 97 -73 77 -87 71 56 71 -1801 l0 -1663 -95 0 -95 0
-2 1647 c-2 1317 -6 1653 -16 1670 -30 53 -31 53 -582 53 l-510 0 0 100 0 101
538 -3 537 -3 57 -28z m-232 -627 l0 -260 -450 0 -450 0 0 260 0 260 450 0
450 0 0 -260z m-2985 226 c68 -29 97 -130 58 -198 -20 -34 -79 -68 -119 -68
-36 0 -97 36 -117 70 -10 15 -17 48 -17 72 0 104 96 165 195 124z m960 0 c68
-29 97 -130 58 -198 -20 -34 -79 -68 -119 -68 -36 0 -97 36 -117 70 -10 15
-17 48 -17 72 0 104 96 165 195 124z m2025 -946 l0 -260 -450 0 -450 0 0 260
0 260 450 0 450 0 0 -260z m0 -720 l0 -260 -450 0 -450 0 0 260 0 260 450 0
450 0 0 -260z m0 -720 l0 -260 -450 0 -450 0 0 260 0 260 450 0 450 0 0 -260z"/>
<path d="M2924 2201 c-56 -24 -72 -109 -30 -158 20 -23 32 -28 71 -28 60 0 95
35 95 95 0 70 -72 118 -136 91z"/>
</g>
</svg>
